<?xml version="1.0" encoding="UTF-8" standalone="no"?>
<!-- Created with Inkscape (http://www.inkscape.org/) -->

<svg
   xmlns:dc="http://purl.org/dc/elements/1.1/"
   xmlns:cc="http://creativecommons.org/ns#"
   xmlns:rdf="http://www.w3.org/1999/02/22-rdf-syntax-ns#"
   xmlns:svg="http://www.w3.org/2000/svg"
   xmlns="http://www.w3.org/2000/svg"
   xmlns:xlink="http://www.w3.org/1999/xlink"
   xmlns:sodipodi="http://sodipodi.sourceforge.net/DTD/sodipodi-0.dtd"
   xmlns:inkscape="http://www.inkscape.org/namespaces/inkscape"
   width="32"
   height="32"
   id="svg4072"
   version="1.1"
   inkscape:version="0.48.4 r"
   sodipodi:docname="tb.svg">
  <defs
     id="defs4074">
    <linearGradient
       id="linearGradient6338">
      <stop
         style="stop-color:#939393;stop-opacity:1;"
         offset="0"
         id="stop6340" />
      <stop
         style="stop-color:#848484;stop-opacity:1;"
         offset="1"
         id="stop6342" />
    </linearGradient>
    <linearGradient
       inkscape:collect="always"
       xlink:href="#linearGradient6338"
       id="linearGradient6352"
       x1="15"
       y1="2"
       x2="15"
       y2="30"
       gradientUnits="userSpaceOnUse" />
    <filter
       id="filter3990"
       inkscape:label="Drop Shadow"
       inkscape:menu="Shadows and Glows"
       inkscape:menu-tooltip="Adds a colorizable drop shadow inside"
       color-interpolation-filters="sRGB"
       style="color-interpolation-filters:sRGB;">
      <feGaussianBlur
         id="feGaussianBlur3992"
         stdDeviation="0.5"
         result="result8" />
      <feOffset
         id="feOffset3994"
         dx="0"
         dy="0.5"
         result="result11" />
      <feComposite
         id="feComposite3996"
         in2="result11"
         result="result6"
         in="SourceGraphic"
         operator="in" />
      <feFlood
         id="feFlood3998"
         result="result10"
         in="result6"
         flood-opacity="0.75"
         flood-color="rgb(0,0,0)" />
      <feBlend
         id="feBlend4000"
         in2="result10"
         mode="normal"
         in="result6"
         result="result12" />
      <feComposite
         id="feComposite4002"
         in2="SourceGraphic"
         result="fbSourceGraphic"
         operator="in" />
      <feColorMatrix
         result="fbSourceGraphicAlpha"
         in="fbSourceGraphic"
         values="0 0 0 -1 0 0 0 0 -1 0 0 0 0 -1 0 0 0 0 1 0"
         id="feColorMatrix3137" />
      <feFlood
         id="feFlood3139"
         flood-opacity="0.5"
         flood-color="rgb(255,255,255)"
         result="flood"
         in="fbSourceGraphic" />
      <feComposite
         id="feComposite3141"
         in2="fbSourceGraphic"
         in="flood"
         operator="in"
         result="composite1" />
      <feGaussianBlur
         id="feGaussianBlur3143"
         in="composite"
         stdDeviation="1.5 0.01"
         result="blur" />
      <feOffset
         id="feOffset3145"
         dx="0"
         dy="1.5"
         result="offset" />
      <feComposite
         id="feComposite3147"
         in2="offset"
         in="fbSourceGraphic"
         operator="over"
         result="composite2" />
    </filter>
  </defs>
  <sodipodi:namedview
     id="base"
     pagecolor="#ffffff"
     bordercolor="#666666"
     borderopacity="1.0"
     inkscape:pageopacity="0.0"
     inkscape:pageshadow="2"
     inkscape:zoom="19.84375"
     inkscape:cx="12.170079"
     inkscape:cy="16.515387"
     inkscape:document-units="px"
     inkscape:current-layer="layer1"
     showgrid="true"
     showguides="true"
     inkscape:snap-global="true"
     inkscape:window-width="1440"
     inkscape:window-height="852"
     inkscape:window-x="0"
     inkscape:window-y="0"
     inkscape:window-maximized="1">
    <inkscape:grid
       type="xygrid"
       id="grid4080"
       empspacing="5"
       visible="true"
       enabled="true"
       snapvisiblegridlinesonly="true" />
  </sodipodi:namedview>
  <metadata
     id="metadata4077">
    <rdf:RDF>
      <cc:Work
         rdf:about="">
        <dc:format>image/svg+xml</dc:format>
        <dc:type
           rdf:resource="http://purl.org/dc/dcmitype/StillImage" />
        <dc:title></dc:title>
        <dc:date>2014</dc:date>
        <dc:creator>
          <cc:Agent>
            <dc:title>Minh Nguyen</dc:title>
          </cc:Agent>
        </dc:creator>
        <dc:rights>
          <cc:Agent>
            <dc:title />
          </cc:Agent>
        </dc:rights>
        <cc:license
           rdf:resource="http://creativecommons.org/publicdomain/zero/1.0/deed.vi" />
      </cc:Work>
    </rdf:RDF>
  </metadata>
  <g
     inkscape:label="AVIM"
     inkscape:groupmode="layer"
     id="layer1"
     transform="translate(0,-1020.3622)"
     style="display:inline">
    <path
       style="fill:url(#linearGradient6352);fill-opacity:1;stroke:#000000;stroke-width:0.20000000000000001;stroke-miterlimit:4;stroke-opacity:1;stroke-dasharray:none;marker-start:none;filter:url(#filter3990)"
       d="M 6,2 C 3.784,2 2,3.784 2,6 l 0,20 c 0,2.216 1.784,4 4,4 l 20,0 c 2.216,0 4,-1.784 4,-4 L 30,6 C 30,3.784 28.216,2 26,2 L 6,2 z m 4,3 10,0 c 2.77,0 5,2.23 5,5 l 0,10 c 0,2.77 -2.23,5 -5,5 L 10,25 C 7.23,25 5,22.77 5,20 L 5,10 C 5,7.23 7.23,5 10,5 z m 1,3.78125 0,4.4375 -1.375,0 0,1 1.375,0 0,4.78125 2.84375,0 c 1.968744,0 3.418612,-0.42513 4.34375,-1.25 0.929678,-0.824868 1.40624,-2.115882 1.40625,-3.875 -10e-6,-1.749993 -0.449879,-3.023429 -1.375,-3.84375 -0.925138,-0.82486 -2.401699,-1.2499898 -4.375,-1.25 l -2.84375,0 z m 1.40625,1.15625 1.65625,0 c 1.408197,9.1e-6 2.44205,0.299488 3.09375,0.9375 0.656242,0.633471 0.968741,1.632819 0.96875,3 -9e-6,1.376306 -0.312508,2.393232 -0.96875,3.03125 -0.6517,0.638022 -1.685553,0.968751 -3.09375,0.96875 l -1.65625,0 0,-3.65625 2.28125,0 0,-1 -2.28125,0 0,-3.28125 z"
       transform="translate(0,1020.3622)"
       id="rect4734"
       inkscape:connector-curvature="0" />
  </g>
</svg>
