<?xml version="1.0"?>

<svg xmlns="http://www.w3.org/2000/svg" version="1.1" width="32" height="32">
	<defs>
		<style type="text/css"><![CDATA[#s1{stop-color:#899199}#s2{stop-color:#7f868d}@media(-moz-mac-graphite-theme:0),(-moz-mac-graphite-theme:1){#s1{stop-color:#939393}#s2{stop-color:#848484}}@media(-moz-windows-classic),(-moz-windows-theme:luna-blue),(-moz-windows-theme:luna-silver),(-moz-windows-theme:luna-olive){#s1{stop-color:#899198}#s2{stop-color:#737b82}}@media(-moz-windows-theme:aero),(-moz-windows-theme:aero-lite){#s1{stop-color:#85919e}#s2{stop-color:#68717d}}]]></style>
		<linearGradient x1="0" y1="2" x2="0" y2="30" gradientUnits="userSpaceOnUse" id="lg">
			<stop id="s1" offset="0" />
			<stop id="s2" offset="1" />
		</linearGradient>
		<filter color-interpolation-filters="sRGB" id="f">
			<feGaussianBlur result="r8" stdDeviation="0.5" />
			<feOffset result="r11" dy="0.5" dx="0" />
			<feComposite in2="r11" operator="in" in="SourceGraphic" result="r6" />
			<feFlood flood-color="#000" flood-opacity="0.75" in="r6" result="r10" />
			<feBlend in2="r10" mode="normal" in="r6" result="r12" />
			<feComposite in2="SourceGraphic" operator="in" result="fbSourceGraphic" />
			<feColorMatrix values="0 0 0 -1 0 0 0 0 -1 0 0 0 0 -1 0 0 0 0 1 0" in="fbSourceGraphic" result="fbSourceGraphicAlpha" />
			<feFlood in="fbSourceGraphic" result="flood" flood-color="#fff" flood-opacity="0.5" />
			<feComposite in2="fbSourceGraphic" operator="in" in="flood" result="c1" />
			<feGaussianBlur result="blur" stdDeviation="1.5 0.01" />
			<feOffset result="offset" dy="1.5" dx="0" />
			<feComposite in2="offset" operator="over" in="fbSourceGraphic" result="c2" />
		</filter>
	</defs>
	<path d="M 6,2 C 3.784,2 2,3.784 2,6 l 0,20 c 0,2.216 1.784,4 4,4 l 20,0 c 2.216,0 4,-1.784 4,-4 L 30,6 C 30,3.784 28.216,2 26,2 L 6,2 z m 4,3 10,0 c 2.77,0 5,2.23 5,5 l 0,10 c 0,2.77 -2.23,5 -5,5 L 10,25 C 7.23,25 5,22.77 5,20 L 5,10 C 5,7.23 7.23,5 10,5 z m 1,3.78125 0,4.4375 -1.375,0 0,1 1.375,0 0,4.78125 2.84375,0 c 1.968744,0 3.418612,-0.42513 4.34375,-1.25 0.929678,-0.824868 1.40624,-2.115882 1.40625,-3.875 -10e-6,-1.749993 -0.449879,-3.023429 -1.375,-3.84375 -0.925138,-0.82486 -2.401699,-1.2499898 -4.375,-1.25 l -2.84375,0 z m 1.40625,1.15625 1.65625,0 c 1.408197,9.1e-6 2.44205,0.299488 3.09375,0.9375 0.656242,0.633471 0.968741,1.632819 0.96875,3 -9e-6,1.376306 -0.312508,2.393232 -0.96875,3.03125 -0.6517,0.638022 -1.685553,0.968751 -3.09375,0.96875 l -1.65625,0 0,-3.65625 2.28125,0 0,-1 -2.28125,0 0,-3.28125 z" style="fill:url(#lg);stroke:#000;stroke-width:0.2;stroke-miterlimit:4;filter:url(#f)" />
</svg>
